<svg width="200" height="200" viewBox="0 0 200 200" xmlns="http://www.w3.org/2000/svg">
  <defs>
    <linearGradient id="grad3" x1="0%" y1="0%" x2="100%" y2="100%">
      <stop offset="0%" style="stop-color:#1e3a8a;stop-opacity:1" />
      <stop offset="100%" style="stop-color:#3b82f6;stop-opacity:1" />
    </linearGradient>
  </defs>
  
  <circle cx="100" cy="100" r="80" fill="url(#grad3)" stroke="#1d4ed8" stroke-width="3"/>
  
  <circle cx="100" cy="100" r="60" fill="white" opacity="0.9"/>
  <circle cx="100" cy="100" r="40" fill="#60a5fa" opacity="0.8"/>
  <circle cx="100" cy="100" r="20" fill="white"/>
  
  <circle cx="100" cy="40" r="12" fill="white" stroke="#1e3a8a" stroke-width="2"/>
  <text x="100" y="46" text-anchor="middle" fill="#1e3a8a" font-size="8" font-family="Arial" font-weight="bold">2.0</text>
  
  <circle cx="140" cy="70" r="12" fill="white" stroke="#1e3a8a" stroke-width="2"/>
  <text x="140" y="76" text-anchor="middle" fill="#1e3a8a" font-size="8" font-family="Arial" font-weight="bold">3.0</text>
  
  <circle cx="140" cy="130" r="12" fill="white" stroke="#1e3a8a" stroke-width="2"/>
  <text x="140" y="136" text-anchor="middle" fill="#1e3a8a" font-size="8" font-family="Arial" font-weight="bold">3.1</text>
  
  <circle cx="60" cy="130" r="12" fill="white" stroke="#1e3a8a" stroke-width="2"/>
  <text x="60" y="136" text-anchor="middle" fill="#1e3a8a" font-size="8" font-family="Arial" font-weight="bold">JSON</text>
  
  <circle cx="60" cy="70" r="12" fill="white" stroke="#1e3a8a" stroke-width="2"/>
  <text x="60" y="76" text-anchor="middle" fill="#1e3a8a" font-size="8" font-family="Arial" font-weight="bold">YAML</text>
  
  <text x="100" y="105" text-anchor="middle" fill="#1e3a8a" font-size="12" font-family="Arial" font-weight="bold">OpenAPI</text>
  
  <line x1="100" y1="52" x2="100" y2="80" stroke="#60a5fa" stroke-width="2"/>
  <line x1="128" y1="82" x2="115" y2="95" stroke="#60a5fa" stroke-width="2"/>
  <line x1="128" y1="118" x2="115" y2="105" stroke="#60a5fa" stroke-width="2"/>
  <line x1="72" y1="118" x2="85" y2="105" stroke="#60a5fa" stroke-width="2"/>
  <line x1="72" y1="82" x2="85" y2="95" stroke="#60a5fa" stroke-width="2"/>
</svg>