<svg width="200" height="200" viewBox="0 0 200 200" xmlns="http://www.w3.org/2000/svg">
  <defs>
    <linearGradient id="grad1" x1="0%" y1="0%" x2="100%" y2="100%">
      <stop offset="0%" style="stop-color:#1e3a8a;stop-opacity:1" />
      <stop offset="100%" style="stop-color:#3b82f6;stop-opacity:1" />
    </linearGradient>
  </defs>
  
  <rect x="20" y="20" width="160" height="160" rx="20" fill="url(#grad1)" stroke="#1d4ed8" stroke-width="3"/>
  
  <rect x="40" y="40" width="40" height="30" rx="5" fill="white" opacity="0.9"/>
  <rect x="120" y="40" width="40" height="30" rx="5" fill="white" opacity="0.9"/>
  <rect x="40" y="90" width="40" height="30" rx="5" fill="white" opacity="0.9"/>
  <rect x="120" y="90" width="40" height="30" rx="5" fill="white" opacity="0.9"/>
  <rect x="80" y="140" width="40" height="30" rx="5" fill="white" opacity="0.9"/>
  
  <line x1="80" y1="55" x2="120" y2="55" stroke="#60a5fa" stroke-width="2"/>
  <line x1="60" y1="70" x2="60" y2="90" stroke="#60a5fa" stroke-width="2"/>
  <line x1="140" y1="70" x2="140" y2="90" stroke="#60a5fa" stroke-width="2"/>
  <line x1="80" y1="105" x2="120" y2="105" stroke="#60a5fa" stroke-width="2"/>
  <line x1="100" y1="120" x2="100" y2="140" stroke="#60a5fa" stroke-width="2"/>
  
  <text x="60" y="60" text-anchor="middle" fill="#1e3a8a" font-size="8" font-family="Arial">GET</text>
  <text x="140" y="60" text-anchor="middle" fill="#1e3a8a" font-size="8" font-family="Arial">POST</text>
  <text x="60" y="110" text-anchor="middle" fill="#1e3a8a" font-size="8" font-family="Arial">PUT</text>
  <text x="140" y="110" text-anchor="middle" fill="#1e3a8a" font-size="8" font-family="Arial">DEL</text>
  <text x="100" y="160" text-anchor="middle" fill="#1e3a8a" font-size="8" font-family="Arial">API</text>
</svg>